<svg xmlns="http://www.w3.org/2000/svg" fill="hsla(21, 97%, 40%, 1)" >
<path d="M216,92.48a122.91,122.91,0,0,1,87.22,35.88,121.4,121.4,0,0,1,0,172.55,124,124,0,0,1-174.44,0,121.4,121.4,0,0,1,0-172.55A122.91,122.91,0,0,1,216,92.48m0-44c-92.35,0-167.21,74.39-167.21,166.15S123.65,380.79,216,380.79,383.21,306.4,383.21,214.63,308.35,48.48,216,48.48Z"/>
<path d="M216,44A171.52,171.52,0,0,1,337.72,94.08a169.67,169.67,0,0,1,0,241.11,173,173,0,0,1-243.44,0,169.67,169.67,0,0,1,0-241.11A171.52,171.52,0,0,1,216,44m0-44C96.71,0,0,96.09,0,214.63S96.71,429.27,216,429.27s216-96.1,216-214.64S335.29,0,216,0Z"/>
<path d="M216,141.51c40.73,0,73.87,32.8,73.87,73.12S256.73,287.76,216,287.76,142.13,255,142.13,214.63s33.14-73.12,73.87-73.12m0-44C150.9,97.51,98.13,150,98.13,214.63S150.9,331.76,216,331.76s117.87-52.44,117.87-117.13S281.1,97.51,216,97.51Z"/>
<circle cx="216" cy="214.63" r="66" />
</svg>