<svg xmlns="http://www.w3.org/2000/svg" viewBox="0 0 726.6 722" style="fill:hsla(21, 97%, 40%, 1);"><path d="M363.3,155.54A206.79,206.79,0,0,1,510,215.88a204.23,204.23,0,0,1,0,290.24,208.52,208.52,0,0,1-293.42,0,204.23,204.23,0,0,1,0-290.24A206.79,206.79,0,0,1,363.3,155.54m0-74C208,81.54,82.06,206.66,82.06,361S208,640.46,363.3,640.46,644.54,515.34,644.54,361,518.62,81.54,363.3,81.54Z"/><path d="M363.3,74A289.31,289.31,0,0,1,568,158.23a286.58,286.58,0,0,1-92,467.18,290.48,290.48,0,0,1-317.47-61.64,286.58,286.58,0,0,1,92-467.18A289.35,289.35,0,0,1,363.3,74m0-74C162.65,0,0,161.63,0,361S162.65,722,363.3,722,726.6,560.37,726.6,361,563.94,0,363.3,0Z"/><path d="M363.3,238a124.06,124.06,0,0,1,88,36.19,122.14,122.14,0,0,1,0,173.62,125.16,125.16,0,0,1-176.06,0,122.12,122.12,0,0,1,0-173.62,124.06,124.06,0,0,1,88-36.19m0-74C253.81,164,165,252.2,165,361S253.81,558,363.3,558s198.25-88.2,198.25-197S472.79,164,363.3,164Z"/><circle cx="363.3" cy="361" r="111.01"/></svg>